<?xml version="1.0" encoding="UTF-8"?>
<!--Generator: Apple Native CoreSVG 341-->
<!DOCTYPE svg
PUBLIC "-//W3C//DTD SVG 1.1//EN"
       "http://www.w3.org/Graphics/SVG/1.1/DTD/svg11.dtd">
<svg version="1.1" xmlns="http://www.w3.org/2000/svg" xmlns:xlink="http://www.w3.org/1999/xlink" viewBox="0 0 52.8428 141.595">
 <g>
  <rect height="141.595" opacity="0" width="52.8428" x="0" y="0"/>
  <path d="M14.6924 141.495L38.1504 141.495C47.5137 141.495 52.8428 136.166 52.8428 126.803L52.8428 14.6924C52.8428 5.37891 47.5137 0 38.1504 0L14.6924 0C5.3291 0 0 5.37891 0 14.6924L0 126.803C0 136.166 5.3291 141.495 14.6924 141.495ZM26.4463 53.5898C15.3896 53.5898 6.52441 44.7246 6.52441 33.668C6.52441 22.6611 15.3896 13.8457 26.4463 13.8457C37.4531 13.8457 46.3682 22.6611 46.3682 33.668C46.3682 44.7246 37.4531 53.5898 26.4463 53.5898ZM16.5352 73.2627C12.501 73.2627 9.26367 69.9756 9.26367 65.9414C9.26367 61.9072 12.4512 58.6699 16.5352 58.6699C20.6191 58.6699 23.9062 61.9072 23.9062 65.9414C23.9062 69.9756 20.5693 73.2627 16.5352 73.2627ZM36.4072 73.2627C32.3232 73.2627 28.9863 69.9756 28.9863 65.9414C28.9863 61.9072 32.3232 58.6699 36.4072 58.6699C40.4414 58.6699 43.5791 61.9072 43.5791 65.9414C43.5791 69.9258 40.3916 73.2627 36.4072 73.2627ZM16.5352 92.3877C12.501 92.3877 9.26367 89.0508 9.26367 85.0166C9.26367 81.0322 12.501 77.7451 16.5352 77.7451C20.6191 77.7451 23.9062 80.9824 23.9062 85.0166C23.9062 89.1006 20.6191 92.3877 16.5352 92.3877ZM16.5352 111.463C12.501 111.463 9.26367 108.176 9.26367 104.191C9.26367 100.107 12.501 96.7705 16.5352 96.7705C20.5693 96.7705 23.9062 100.107 23.9062 104.191C23.9062 108.226 20.6191 111.463 16.5352 111.463ZM36.3076 111.463C32.5723 111.463 29.4346 108.325 29.4346 104.59L29.4346 84.6182C29.4346 80.7832 32.5225 77.7451 36.3076 77.7451C40.1426 77.7451 43.2803 80.833 43.2803 84.6182L43.2803 104.59C43.2803 108.425 40.1426 111.463 36.3076 111.463Z" fill="white" fill-opacity="0.85"/>
 </g>
</svg>
